<?xml version="1.0" encoding="UTF-8"?>
<!-- Do not edit this file with editors other than draw.io -->
<!DOCTYPE svg PUBLIC "-//W3C//DTD SVG 1.1//EN" "http://www.w3.org/Graphics/SVG/1.1/DTD/svg11.dtd">
<svg xmlns="http://www.w3.org/2000/svg" xmlns:xlink="http://www.w3.org/1999/xlink" version="1.1" width="846px" height="402px" viewBox="-0.5 -0.5 846 402" content="&lt;mxfile host=&quot;app.diagrams.net&quot; modified=&quot;2023-09-05T17:22:09.275Z&quot; agent=&quot;Mozilla/5.0 (Windows NT 10.0; Win64; x64) AppleWebKit/537.36 (KHTML, like Gecko) Chrome/116.0.0.0 Safari/537.36&quot; etag=&quot;6UKehPQfsvpOCEjyiV2z&quot; version=&quot;21.7.2&quot; type=&quot;github&quot;&gt;&#10;  &lt;diagram name=&quot;Page-1&quot; id=&quot;aaaa8250-4180-3840-79b5-4cada1eebb92&quot;&gt;&#10;    &lt;mxGraphModel dx=&quot;8950&quot; dy=&quot;1914&quot; grid=&quot;1&quot; gridSize=&quot;10&quot; guides=&quot;1&quot; tooltips=&quot;1&quot; connect=&quot;1&quot; arrows=&quot;1&quot; fold=&quot;1&quot; page=&quot;1&quot; pageScale=&quot;1&quot; pageWidth=&quot;850&quot; pageHeight=&quot;1100&quot; background=&quot;none&quot; math=&quot;0&quot; shadow=&quot;0&quot;&gt;&#10;      &lt;root&gt;&#10;        &lt;mxCell id=&quot;0&quot; /&gt;&#10;        &lt;mxCell id=&quot;1&quot; parent=&quot;0&quot; /&gt;&#10;        &lt;mxCell id=&quot;B2prTyXr3vQg8Xw-XA3r-1&quot; value=&quot;&quot; style=&quot;outlineConnect=0;dashed=0;verticalLabelPosition=bottom;verticalAlign=top;align=center;html=1;shape=mxgraph.aws3.ec2;fillColor=#F58534;gradientColor=none;&quot; vertex=&quot;1&quot; parent=&quot;1&quot;&gt;&#10;          &lt;mxGeometry x=&quot;-5358&quot; y=&quot;289.6&quot; width=&quot;190&quot; height=&quot;190&quot; as=&quot;geometry&quot; /&gt;&#10;        &lt;/mxCell&gt;&#10;        &lt;mxCell id=&quot;B2prTyXr3vQg8Xw-XA3r-2&quot; value=&quot;&quot; style=&quot;image;sketch=0;aspect=fixed;html=1;points=[];align=center;fontSize=12;image=img/lib/mscae/Docker.svg;&quot; vertex=&quot;1&quot; parent=&quot;1&quot;&gt;&#10;          &lt;mxGeometry x=&quot;-5065.98&quot; y=&quot;289.6&quot; width=&quot;231.71&quot; height=&quot;190&quot; as=&quot;geometry&quot; /&gt;&#10;        &lt;/mxCell&gt;&#10;        &lt;mxCell id=&quot;B2prTyXr3vQg8Xw-XA3r-3&quot; value=&quot;&quot; style=&quot;sketch=0;outlineConnect=0;fontColor=#232F3E;gradientColor=none;fillColor=#3F8624;strokeColor=none;dashed=0;verticalLabelPosition=bottom;verticalAlign=top;align=center;html=1;fontSize=12;fontStyle=0;aspect=fixed;pointerEvents=1;shape=mxgraph.aws4.iot_analytics_pipeline;&quot; vertex=&quot;1&quot; parent=&quot;1&quot;&gt;&#10;          &lt;mxGeometry x=&quot;-5088&quot; y=&quot;549.6&quot; width=&quot;226.57&quot; height=&quot;122&quot; as=&quot;geometry&quot; /&gt;&#10;        &lt;/mxCell&gt;&#10;        &lt;mxCell id=&quot;B2prTyXr3vQg8Xw-XA3r-4&quot; value=&quot;&quot; style=&quot;shape=image;html=1;verticalAlign=top;verticalLabelPosition=bottom;labelBackgroundColor=#ffffff;imageAspect=0;aspect=fixed;image=https://cdn1.iconfinder.com/data/icons/picons-social/57/github-128.png&quot; vertex=&quot;1&quot; parent=&quot;1&quot;&gt;&#10;          &lt;mxGeometry x=&quot;-5680&quot; y=&quot;270&quot; width=&quot;198&quot; height=&quot;198&quot; as=&quot;geometry&quot; /&gt;&#10;        &lt;/mxCell&gt;&#10;      &lt;/root&gt;&#10;    &lt;/mxGraphModel&gt;&#10;  &lt;/diagram&gt;&#10;&lt;/mxfile&gt;&#10;" resource="https://app.diagrams.net/#HMukezz%2FMukesh-DevOps-Blogs%2Fmain%2FBlog1Project.svg"><defs/><g><path d="M 416.96 209.6 L 398.02 201.79 L 398.02 189.77 L 381.31 194.87 L 366.86 188.87 L 366.86 180.27 L 353.75 183.34 L 342.05 178.48 L 342.05 172.15 L 331.47 174.12 L 322 170.18 L 322 59.05 L 331.47 55.12 L 342.05 57.08 L 342.05 50.75 L 353.75 45.89 L 366.86 48.93 L 366.86 40.36 L 381.31 34.36 L 398.02 39.43 L 398.02 27.44 L 416.96 19.6 L 512 59.02 L 512 170.18 Z" fill="#f58534" stroke="none" pointer-events="all"/><path d="M 331.47 174.12 L 322 170.18 L 322 59.05 L 331.47 55.12 Z M 353.75 183.34 L 342.05 178.48 L 342.05 50.75 L 353.75 45.89 Z M 381.31 194.87 L 366.86 188.87 L 366.86 40.36 L 381.31 34.36 Z M 398.02 201.79 L 398.02 27.44 L 416.96 19.6 L 416.96 209.6 Z" fill-opacity="0.3" fill="#000000" stroke="none" pointer-events="all"/><image x="613.52" y="19.1" width="231.71" height="190" xlink:href="https://app.diagrams.net/img/lib/mscae/Docker.svg"/><rect x="592" y="279.6" width="226.57" height="122" fill="none" stroke="none" pointer-events="all"/><path d="M 766.29 279.6 C 763.47 279.6 761.2 281.87 761.2 284.68 L 761.2 294.85 L 649.37 294.85 L 649.37 284.68 C 649.37 281.87 647.1 279.6 644.29 279.6 L 598.54 279.6 C 595.72 279.6 593.45 281.87 593.45 284.68 L 593.45 396.52 C 593.45 399.33 595.72 401.6 598.54 401.6 L 644.29 401.6 C 647.1 401.6 649.37 399.33 649.37 396.52 L 649.37 386.35 L 761.2 386.35 L 761.2 396.52 C 761.2 399.33 763.47 401.6 766.29 401.6 L 812.04 401.6 C 814.85 401.6 817.12 399.33 817.12 396.52 L 817.12 284.68 C 817.12 281.87 814.85 279.6 812.04 279.6 Z M 639.2 391.43 L 603.62 391.43 L 603.62 289.77 L 639.2 289.77 L 639.2 299.93 L 639.2 381.27 Z M 649.37 376.18 L 649.37 305.02 L 761.2 305.02 L 761.2 376.18 Z M 806.95 391.43 L 771.37 391.43 L 771.37 381.27 L 771.37 299.93 L 771.37 289.77 L 806.95 289.77 Z M 740.87 325.35 L 751.04 325.35 L 751.04 315.18 L 740.87 315.18 Z M 700.2 325.35 L 730.7 325.35 L 730.7 315.18 L 700.2 315.18 Z" fill="#3f8624" stroke="none" pointer-events="all"/><image x="-0.5" y="-0.5" width="198" height="198" xlink:href="https://cdn1.iconfinder.com/data/icons/picons-social/57/github-128.png" preserveAspectRatio="none"/></g></svg>